<?xml version="1.0" standalone="no"?>
<!DOCTYPE svg PUBLIC "-//W3C//DTD SVG 20010904//EN"
 "http://www.w3.org/TR/2001/REC-SVG-20010904/DTD/svg10.dtd">
<svg version="1.0" xmlns="http://www.w3.org/2000/svg"
 width="1024.000000pt" height="1024.000000pt" viewBox="0 0 1024.000000 1024.000000"
 preserveAspectRatio="xMidYMid meet">
<metadata>
Created by potrace 1.14, written by Peter Selinger 2001-2017
</metadata>
<g transform="translate(0.000000,1024.000000) scale(0.100000,-0.100000)"
fill="#000000" stroke="none">
<path d="M3005 7799 c-151 -23 -344 -83 -467 -145 -87 -43 -209 -126 -287
-195 -40 -35 -79 -68 -85 -73 -9 -6 -37 8 -87 41 -41 28 -126 84 -191 126
l-116 75 -176 -264 c-97 -146 -176 -269 -176 -273 0 -5 95 -71 210 -147 123
-81 210 -145 210 -154 -1 -8 -7 -44 -15 -80 -21 -91 -24 -248 -29 -1377 l-5
-993 308 0 308 0 6 413 c4 226 7 710 7 1075 l0 663 26 77 c96 286 309 490 589
563 102 27 301 37 376 19 125 -29 300 -121 388 -204 115 -109 191 -247 215
-391 31 -183 36 -355 36 -1281 l0 -934 310 0 311 0 -4 1078 c-3 1070 -3 1078
-25 1175 -50 219 -125 396 -242 571 -206 307 -509 525 -851 612 -91 23 -129
27 -294 29 -104 2 -217 0 -250 -6z"/>
<path d="M6709 7796 c-211 -38 -466 -146 -629 -270 -281 -212 -480 -524 -556
-876 -27 -122 -27 -449 0 -570 28 -129 70 -250 127 -362 57 -114 88 -162 166
-261 l55 -68 -70 -73 c-310 -327 -405 -643 -271 -909 50 -98 162 -203 279
-261 214 -104 452 -126 979 -89 130 9 342 16 471 17 339 0 459 -25 593 -125
81 -61 150 -146 177 -217 25 -66 27 -186 4 -263 -36 -123 -165 -325 -257 -404
-57 -49 -185 -111 -278 -134 -121 -31 -219 -41 -387 -41 -385 1 -625 73 -907
275 -121 87 -269 219 -363 325 -46 52 -88 96 -92 98 -12 5 -495 -388 -495
-403 0 -21 184 -222 300 -327 488 -443 930 -618 1562 -618 544 0 945 151 1205
454 196 230 330 498 368 738 18 111 8 331 -19 433 -90 335 -395 652 -743 774
-263 92 -543 107 -1183 65 -249 -17 -547 -15 -578 2 -17 10 -14 16 27 70 24
32 85 99 134 148 l90 88 63 -21 c114 -37 235 -61 351 -70 396 -29 767 93 1068
352 340 292 532 765 490 1207 -10 104 -38 259 -55 302 -6 14 33 37 223 132
l231 115 -141 288 c-77 159 -141 289 -143 291 -2 2 -115 -53 -251 -121 l-249
-124 -85 75 c-198 175 -424 290 -680 347 -102 23 -426 29 -531 11z m427 -656
c147 -38 272 -108 376 -212 172 -172 257 -417 228 -655 -34 -276 -198 -506
-448 -628 -109 -54 -207 -76 -337 -77 -142 0 -233 20 -360 82 -199 97 -342
262 -411 475 -34 104 -44 293 -21 402 53 245 221 457 450 564 152 70 361 90
523 49z"/>
</g>
</svg>
