<?xml version="1.0" encoding="UTF-8"?>
<!DOCTYPE svg  PUBLIC '-//W3C//DTD SVG 1.1//EN'  'http://www.w3.org/Graphics/SVG/1.1/DTD/svg11.dtd'>
<svg clip-rule="evenodd" stroke-linecap="round" stroke-linejoin="round" stroke-miterlimit="10" version="1.1" viewBox="0 0 1024 1024" xml:space="preserve" xmlns="http://www.w3.org/2000/svg" xmlns:xlink="http://www.w3.org/1999/xlink">
<defs>
<path id="c" d="m549.63 387.56c0-80.081 64.918-145 145-145 80.081 0 145 64.919 145 145 0 80.082-64.919 145-145 145-80.082 0-145-64.918-145-145z"/>
<path id="b" d="m88.828 514.61c0-81.522 66.087-147.61 147.61-147.61 81.522 0 147.61 66.087 147.61 147.61 0 81.523-66.087 147.61-147.61 147.61-81.523 0-147.61-66.087-147.61-147.61z"/>
<path id="a" d="m323.46 242.56c-80.081 0-143.46 56.631-143.46 136.71 0 49.739 20.82 103.84 58.986 129.96 0 0-10.892-90.41 4.109-137.84 6.905-21.83 15.73-33.187 26.03-42.472 12.078-10.888 26.517-17.913 47.258-20.485 22.141-2.745 32.563 1.616 51.156 11.752 12.567 6.852 21.724 17.568 29.269 32.144 5.486 10.597 6.752 29.514 8.046 51.049 2.903 48.344 1.382 108.62 1.382 108.62 39.592-25.888 60.764-66.498 60.764-117.33 0-80.082-63.461-152.11-143.54-152.11z"/>
</defs>

<g fill="#3395ff" opacity="0">
<path d="m3.4564 12.053h2.5345v2.2529c0.75096-0.9288 1.5464-1.5958 2.3863-2.0009 0.83989-0.4052 1.7737-0.6077 2.8013-0.6077 2.2529 0 3.7745 0.7855 4.565 2.3566 0.4348 0.8597 0.6522 2.0898 0.6522 3.6906v10.182h-2.7124v-10.005c0-0.9683-0.1433-1.7489-0.4298-2.3418-0.4743-0.9881-1.3339-1.4821-2.579-1.4821-0.6323 0-1.1511 0.0642-1.5562 0.1926-0.7312 0.2174-1.3735 0.6522-1.9268 1.3043-0.44465 0.5237-0.73367 1.0647-0.86706 1.623-0.1334 0.5583-0.20009 1.3562-0.20009 2.3937v8.3149h-2.6679v-15.874z"/>
<path d="m25.941 11.771c1.245 0 2.3319 0.3063 3.2607 0.9189 0.5039 0.3459 1.0177 0.8498 1.5414 1.5118v-2.0009h2.4604v14.436c0 2.0157-0.2964 3.6066-0.8893 4.7726-1.1067 2.154-3.1965 3.2311-6.2695 3.2311-1.7094 0-3.1471-0.3829-4.3131-1.1487-1.1659-0.7658-1.8181-1.9639-1.9564-3.5942h2.7123c0.1285 0.7114 0.3854 1.2598 0.7708 1.6451 0.6027 0.5929 1.5513 0.8893 2.8457 0.8893 2.0454 0 3.3842-0.7213 4.0166-2.1639 0.3755-0.8498 0.5484-2.3665 0.5188-4.5502-0.5336 0.8102-1.1759 1.413-1.9268 1.8082-0.751 0.3952-1.744 0.5929-2.9791 0.5929-1.7194 0-3.2237-0.6102-4.5132-1.8305s-1.9342-3.2385-1.9342-6.0546c0-2.658 0.6497-4.733 1.949-6.2251 1.2994-1.492 2.868-2.238 4.7059-2.238zm4.8021 8.1518c0-1.9663-0.4051-3.4237-1.2153-4.3723-0.8103-0.9486-1.8428-1.4229-3.0977-1.4229-1.8774 0-3.162 0.8794-3.8536 2.6382-0.3656 0.9387-0.5484 2.1689-0.5484 3.6906 0 1.7885 0.3631 3.1496 1.0893 4.0834 0.7263 0.9337 1.7021 1.4006 2.9273 1.4006 1.9169 0 3.2657-0.8646 4.0463-2.5938 0.4348-0.9782 0.6521-2.1195 0.6521-3.4238z"/>
</g>
<g opacity="0">
<path d="m225.78 288.4v32.766c11.915-11.418 27.553-21.72 46.915-30.904 19.362-9.185 40.71-13.777 64.044-13.777 29.291 0 51.88 4.096 67.767 12.287 15.887 8.192 27.181 21.472 33.883 39.841s10.55 44.433 11.543 78.193v184.68h-63.299v-151.92c-0.496-29.787-2.606-52.5-6.33-68.139-3.723-15.639-9.805-26.685-18.245-33.139-8.439-6.454-20.603-9.681-36.49-9.681-14.397 0-31.277 5.089-50.639 15.266-19.362 10.178-35.745 21.721-49.149 34.629v212.98h-63.299v-303.09h63.299z"/>
<path d="m697.17 499.89c-12.412 0-23.582-0.993-33.512-2.978-9.929 11.418-14.893 23.83-14.893 37.234 0 4.468 3.351 7.447 10.053 8.936 6.702 1.49 17.004 2.234 30.905 2.234h23.83c26.809 0 50.391 2.11 70.746 6.33 20.354 4.22 37.731 13.777 52.128 28.671s21.596 37.235 21.596 67.022c0 36.242-12.536 62.803-37.607 79.682-25.071 16.88-58.706 25.32-100.91 25.32-31.277 0-58.83-3.475-82.66-10.426-23.831-6.95-42.572-15.763-56.225-26.436-13.652-10.674-21.968-21.472-24.947-32.395l37.979-35c13.405 13.901 29.664 26.064 48.778 36.49s45.798 15.638 80.054 15.638c23.334 0 42.075-4.22 56.224-12.659 14.15-8.44 21.224-21.1 21.224-37.98 0-15.39-4.965-26.933-14.894-34.628s-22.092-12.66-36.49-14.894c-14.397-2.234-33.759-3.847-58.086-4.84-22.837-0.497-41.33-1.738-55.479-3.724-14.149-1.985-25.94-6.454-35.373-13.404-9.433-6.951-14.149-17.624-14.149-32.022 0-10.425 1.986-21.844 5.957-34.256 3.972-12.411 10.178-23.83 18.618-34.255-17.873-9.93-32.022-22.714-42.448-38.352-10.425-15.639-15.638-32.642-15.638-51.011 0-21.348 6.578-40.586 19.734-57.714s30.905-30.408 53.246-39.841c22.34-9.433 46.419-14.149 72.235-14.149 26.312 0 51.383 5.213 75.213 15.638l81.917-37.234 22.34 47.66-55.852 25.32c14.398 18.369 21.597 38.475 21.597 60.32 0 21.347-6.703 40.461-20.107 57.341-13.405 16.879-31.277 30.16-53.618 39.841s-46.171 14.521-71.49 14.521zm-84.895-107.98c0 17.873 8.067 31.649 24.202 41.33s36.366 14.522 60.693 14.522c23.83 0 43.936-4.841 60.32-14.522 16.383-9.681 24.574-23.457 24.574-41.33s-8.439-32.891-25.319-45.054-36.738-18.245-59.575-18.245c-22.838 0-42.696 5.958-59.576 17.873-16.879 11.915-25.319 27.057-25.319 45.426z"/>
</g>
<g>
<g>
<mask id="f" x="549.634" y="242.555" width="290" height="290" maskUnits="userSpaceOnUse">
<rect x="549.63" y="242.56" width="290" height="290"/>
<use fill="#ffffff" fill-rule="evenodd" xlink:href="#c"/>
</mask>
<use fill="none" mask="url(#f)" stroke="#000000" stroke-linecap="butt" stroke-linejoin="round" stroke-width="130" xlink:href="#c"/>
</g>
<path d="m770.89 338.79 93.831-46.821" fill="none" stroke="#000000" stroke-linecap="butt" stroke-linejoin="round" stroke-width="65"/>
<path d="m651.09 473.74s-100.82 70.264-63.128 102.02c37.696 31.76 159.32-14.76 213.91 25.014s39.891 93.741 4.444 134.08c-35.448 40.34-110.86 35.838-146.24 27.279-56.715-13.722-99.906-64.34-110.44-77.429" fill="none" stroke="#000000" stroke-linecap="butt" stroke-linejoin="round" stroke-width="65"/>
</g>
<g opacity="0">
<mask id="e" x="88.8282" y="367" width="295.219" height="295.219" maskUnits="userSpaceOnUse">
<rect x="88.828" y="367" width="295.22" height="295.22"/>
<use fill="#ffffff" fill-rule="evenodd" xlink:href="#b"/>
</mask>
<use fill="none" mask="url(#e)" stroke="#000000" stroke-linecap="butt" stroke-linejoin="round" stroke-width="130" xlink:href="#b"/>
</g>
<g>
<path d="m211.31 370.49-1.064 219.51" fill="none" stroke="#000000" stroke-linecap="butt" stroke-linejoin="round" stroke-width="62"/>
<path d="m436.02 394.46 0.075 195.54" fill="none" stroke="#000000" stroke-linecap="butt" stroke-linejoin="round" stroke-width="62"/>
<g>
<mask id="d" x="180" y="242.555" width="287" height="269.445" maskUnits="userSpaceOnUse">
<rect x="180" y="242.56" width="287" height="269.44"/>
<use fill="#ffffff" fill-rule="evenodd" xlink:href="#a"/>
</mask>
<use fill="none" mask="url(#d)" stroke="#000000" stroke-linecap="butt" stroke-linejoin="round" stroke-width="130" xlink:href="#a"/>
</g>
<path d="m159.28 288.15 87.463 57.849" fill="none" stroke="#000000" stroke-linecap="butt" stroke-linejoin="round" stroke-width="65"/>
</g>

</svg>
